<?xml version="1.0" encoding="UTF-8"?>
<svg xmlns="http://www.w3.org/2000/svg" xmlns:xlink="http://www.w3.org/1999/xlink" viewBox="0 0 24 24" width="24px" height="24px">
<g id="surface48343298">
<path style=" stroke:none;fill-rule:nonzero;fill:rgb(16.862746%,73.725492%,54.11765%);fill-opacity:1;" d="M 12 24 C 5.371094 24 0 18.628906 0 12 C 0 5.371094 5.371094 0 12 0 C 18.628906 0 24 5.371094 24 12 C 24 18.628906 18.628906 24 12 24 Z M 12 24 "/>
<path style=" stroke:none;fill-rule:nonzero;fill:rgb(11.372549%,12.156863%,12.941177%);fill-opacity:1;" d="M 20.308594 6.59375 C 19.6875 6.867188 19.0625 7.078125 18.367188 7.148438 C 19.0625 6.730469 19.617188 6.039062 19.890625 5.277344 C 19.199219 5.691406 18.507812 5.96875 17.746094 6.109375 C 17.054688 5.417969 16.152344 5 15.1875 5 C 13.3125 5 11.792969 6.523438 11.792969 8.390625 C 11.792969 8.667969 11.792969 8.945312 11.863281 9.152344 C 9.023438 9.015625 6.53125 7.699219 4.867188 5.621094 C 4.523438 6.109375 4.382812 6.730469 4.382812 7.351562 C 4.382812 8.53125 5.007812 9.570312 5.90625 10.191406 C 5.351562 10.121094 4.800781 9.984375 4.382812 9.777344 C 4.382812 9.777344 4.382812 9.777344 4.382812 9.847656 C 4.382812 11.507812 5.5625 12.890625 7.082031 13.167969 C 6.808594 13.238281 6.53125 13.308594 6.1875 13.308594 C 5.976562 13.308594 5.769531 13.308594 5.5625 13.238281 C 5.976562 14.621094 7.222656 15.59375 8.746094 15.59375 C 7.570312 16.492188 6.117188 17.046875 4.523438 17.046875 C 4.246094 17.046875 3.96875 17.046875 3.691406 16.976562 C 5.214844 17.945312 7.015625 18.5 8.882812 18.5 C 15.1875 18.5 18.578125 13.308594 18.578125 8.808594 C 18.578125 8.667969 18.578125 8.53125 18.578125 8.390625 C 19.269531 7.90625 19.824219 7.285156 20.308594 6.59375 "/>
</g>
</svg>
