<?xml version="1.0" encoding="UTF-8"?>
<svg xmlns="http://www.w3.org/2000/svg" xmlns:xlink="http://www.w3.org/1999/xlink" viewBox="0 0 48 48" width="48px" height="48px">
<g id="surface41768177">
<path style=" stroke:none;fill-rule:nonzero;fill:rgb(16.862746%,73.725492%,54.11765%);fill-opacity:1;" d="M 24 48 C 10.746094 48 0 37.253906 0 24 C 0 10.746094 10.746094 0 24 0 C 37.253906 0 48 10.746094 48 24 C 48 37.253906 37.253906 48 24 48 Z M 24 48 "/>
<path style=" stroke:none;fill-rule:nonzero;fill:rgb(11.372549%,12.156863%,12.941177%);fill-opacity:1;" d="M 26.328125 8.398438 C 25.777344 8.40625 25.304688 8.792969 25.195312 9.332031 L 23.433594 17.78125 C 19.613281 17.886719 16.160156 19.050781 13.613281 20.898438 C 12.910156 20.398438 12.054688 20.101562 11.128906 20.101562 C 8.761719 20.101562 6.839844 22.019531 6.839844 24.390625 C 6.839844 26.070312 7.804688 27.519531 9.210938 28.222656 C 9.203125 28.375 9.179688 28.527344 9.179688 28.679688 C 9.179688 34.710938 15.816406 39.601562 24 39.601562 C 32.183594 39.601562 38.820312 34.710938 38.820312 28.679688 C 38.820312 28.527344 38.796875 28.375 38.789062 28.222656 C 40.195312 27.519531 41.160156 26.070312 41.160156 24.390625 C 41.160156 22.019531 39.238281 20.101562 36.871094 20.101562 C 35.941406 20.101562 35.089844 20.398438 34.386719 20.898438 C 32.117188 19.253906 29.132812 18.148438 25.808594 17.851562 L 27.25 10.933594 L 31.898438 11.820312 C 32.207031 12.992188 33.265625 13.859375 34.53125 13.859375 C 36.035156 13.859375 37.261719 12.636719 37.261719 11.128906 C 37.261719 9.625 36.035156 8.398438 34.53125 8.398438 C 33.628906 8.398438 32.832031 8.84375 32.335938 9.519531 L 26.558594 8.421875 C 26.484375 8.40625 26.40625 8.398438 26.328125 8.398438 Z M 18.148438 24 C 19.65625 24 20.878906 25.222656 20.878906 26.730469 C 20.878906 28.238281 19.65625 29.460938 18.148438 29.460938 C 16.640625 29.460938 15.421875 28.238281 15.421875 26.730469 C 15.421875 25.222656 16.640625 24 18.148438 24 Z M 29.851562 24 C 31.359375 24 32.578125 25.222656 32.578125 26.730469 C 32.578125 28.238281 31.359375 29.460938 29.851562 29.460938 C 28.34375 29.460938 27.121094 28.238281 27.121094 26.730469 C 27.121094 25.222656 28.34375 24 29.851562 24 Z M 18.929688 31.800781 C 19.230469 31.800781 19.527344 31.914062 19.757812 32.144531 C 19.796875 32.179688 21.085938 33.359375 24 33.359375 C 26.941406 33.359375 28.230469 32.15625 28.242188 32.144531 C 28.699219 31.6875 29.4375 31.6875 29.894531 32.144531 C 30.351562 32.601562 30.355469 33.339844 29.898438 33.796875 C 29.703125 33.992188 27.882812 35.699219 24 35.699219 C 20.117188 35.699219 18.296875 33.992188 18.101562 33.796875 C 17.644531 33.339844 17.644531 32.601562 18.101562 32.144531 C 18.332031 31.914062 18.628906 31.800781 18.929688 31.800781 Z M 18.929688 31.800781 "/>
</g>
</svg>
