<?xml version="1.0" encoding="UTF-8"?>
<svg xmlns="http://www.w3.org/2000/svg" xmlns:xlink="http://www.w3.org/1999/xlink" viewBox="0 0 24 24" width="24px" height="24px">
<g id="surface46942295">
<path style=" stroke:none;fill-rule:nonzero;fill:rgb(16.862746%,73.725492%,54.11765%);fill-opacity:1;" d="M 14 11.019531 C 13.480469 11.019531 13.058594 11.550781 13.058594 12.199219 C 13.058594 12.851562 13.480469 13.378906 14 13.378906 C 14.519531 13.378906 14.941406 12.851562 14.941406 12.199219 C 14.941406 11.550781 14.519531 11.019531 14 11.019531 Z M 10 11.019531 C 9.480469 11.019531 9.058594 11.550781 9.058594 12.199219 C 9.058594 12.851562 9.480469 13.378906 10 13.378906 C 10.519531 13.378906 10.941406 12.851562 10.941406 12.199219 C 10.941406 11.550781 10.519531 11.019531 10 11.019531 Z M 14 11.019531 C 13.480469 11.019531 13.058594 11.550781 13.058594 12.199219 C 13.058594 12.851562 13.480469 13.378906 14 13.378906 C 14.519531 13.378906 14.941406 12.851562 14.941406 12.199219 C 14.941406 11.550781 14.519531 11.019531 14 11.019531 Z M 10 11.019531 C 9.480469 11.019531 9.058594 11.550781 9.058594 12.199219 C 9.058594 12.851562 9.480469 13.378906 10 13.378906 C 10.519531 13.378906 10.941406 12.851562 10.941406 12.199219 C 10.941406 11.550781 10.519531 11.019531 10 11.019531 Z M 18 3 L 6 3 C 4.339844 3 3 4.339844 3 6 L 3 18 C 3 19.660156 4.339844 21 6 21 L 17 21 L 16.621094 19.589844 L 19.628906 22.621094 C 20.140625 23.128906 21 22.769531 21 22.058594 L 21 6 C 21 4.339844 19.660156 3 18 3 Z M 17.570312 14.738281 C 16.199219 15.988281 14.410156 16 14.410156 16 L 13.980469 15.421875 C 14.421875 15.269531 14.800781 15.070312 15.191406 14.769531 L 15.101562 14.53125 C 14.378906 14.859375 13.449219 15.058594 12 15.058594 C 10.550781 15.058594 9.621094 14.859375 8.898438 14.53125 L 8.808594 14.769531 C 9.199219 15.070312 9.578125 15.269531 10.019531 15.421875 L 9.589844 16 C 9.589844 16 7.800781 15.988281 6.429688 14.738281 C 6.210938 14.539062 6.121094 14.230469 6.140625 13.941406 C 6.390625 11.050781 7.28125 9.300781 7.601562 8.761719 C 7.671875 8.628906 7.769531 8.53125 7.890625 8.441406 C 8.269531 8.191406 9.21875 7.628906 10.390625 7.511719 L 10.691406 8.121094 C 11.121094 8.039062 11.589844 7.980469 12 7.980469 C 12.398438 7.980469 12.859375 8.039062 13.308594 8.121094 L 13.609375 7.511719 C 14.730469 7.601562 15.71875 8.179688 16.109375 8.441406 C 16.230469 8.53125 16.328125 8.628906 16.398438 8.761719 C 16.71875 9.308594 17.609375 11.050781 17.859375 13.941406 C 17.878906 14.230469 17.789062 14.539062 17.570312 14.738281 Z M 14 11.019531 C 13.480469 11.019531 13.058594 11.550781 13.058594 12.199219 C 13.058594 12.851562 13.480469 13.378906 14 13.378906 C 14.519531 13.378906 14.941406 12.851562 14.941406 12.199219 C 14.941406 11.550781 14.519531 11.019531 14 11.019531 Z M 10 11.019531 C 9.480469 11.019531 9.058594 11.550781 9.058594 12.199219 C 9.058594 12.851562 9.480469 13.378906 10 13.378906 C 10.519531 13.378906 10.941406 12.851562 10.941406 12.199219 C 10.941406 11.550781 10.519531 11.019531 10 11.019531 Z M 10 11.019531 "/>
</g>
</svg>
