<svg width="96" height="96" xmlns="http://www.w3.org/2000/svg" xmlns:xlink="http://www.w3.org/1999/xlink" overflow="hidden"><defs><clipPath id="clip0"><rect x="509" y="252" width="96" height="96"/></clipPath></defs><g clip-path="url(#clip0)" transform="translate(-509 -252)"><path d="M557 323C555.343 323 554 321.657 554 320L554 287.24 545.12 296.12C543.908 297.25 542.01 297.182 540.88 295.97 539.806 294.818 539.806 293.032 540.88 291.88L554.88 277.88C556.051 276.71 557.949 276.71 559.12 277.88L573.12 291.88C574.25 293.092 574.182 294.991 572.97 296.12 571.818 297.194 570.032 297.194 568.88 296.12L560 287.24 560 320C560 321.657 558.657 323 557 323Z" fill="#2BBC8A"/><path d="M557 262C536.013 262 519 279.013 519 300 519 320.987 536.013 338 557 338 577.987 338 595 320.987 595 300 595 279.013 577.987 262 557 262ZM557 268C574.673 268 589 282.327 589 300 589 317.673 574.673 332 557 332 539.327 332 525 317.673 525 300 525 282.327 539.327 268 557 268Z" fill="#2BBC8A"/></g></svg>